<svg t="1635921034880" class="icon" viewBox="0 0 1024 1024" version="1.1" xmlns="http://www.w3.org/2000/svg" p-id="2434" width="200" height="200"><path d="M512 499.014244c225.814002 0 396.093177-74.513064 396.093177-173.339884S737.814002 152.334477 512 152.334477s-396.093177 74.513064-396.093177 173.339884S286.185998 499.014244 512 499.014244zM170.935114 325.674361c0-49.38578 129.766482-118.311593 341.064886-118.311593s341.064886 68.925812 341.064886 118.311593S723.298404 443.985954 512 443.985954 170.935114 375.060141 170.935114 325.674361z" p-id="2435" fill="#ffffff"></path><path d="M870.612541 624.51354c-0.309038-0.252757-0.645706-0.476861-0.982374-0.674359-4.632507-3.790326-10.332323-5.867638-16.143679-5.867638-14.150278 0-25.66145 11.511171-25.66145 25.66145 0 6.709819 2.611477 12.999059 7.411807 17.856693 0.224104 0.309038 0.449231 0.589424 0.729617 0.870834 11.202133 11.230786 18.164708 25.436322 18.164708 37.032428 0 49.835012-130.159432 119.378901-342.132194 119.378901s-342.132194-69.543889-342.132194-119.378901c0-12.549827 3.115967-23.668049 18.361183-37.087687 0.083911-0.083911 1.122567-1.067308 1.207501-1.151219 0.39295-0.39295 0.729617-0.842181 1.011027-1.319042 3.846608-4.660136 5.952572-10.359952 5.952572-16.22759 0-14.150278-11.511171-25.66145-25.66145-25.66145-6.28924 0-12.240789 2.246157-16.929578 6.373151-0.449231 0.252757-0.870834 0.589424-1.263783 0.954745-23.611767 22.99369-35.57217 47.925522-35.57217 74.120115 0 98.208742 169.830967 172.273599 395.026892 172.273599s395.026892-74.063833 395.026892-172.273599c0-25.914206-11.847839-50.677193-34.954093-73.334215C871.931582 625.889887 870.752734 624.682385 870.612541 624.51354z" p-id="2436" fill="#ffffff"></path><path d="M869.545232 435.226452c-4.604878-3.790326-10.247388-5.840008-16.059767-5.840008-14.150278 0-25.66145 11.511171-25.66145 25.66145 0 6.709819 2.611477 12.999059 7.411807 17.856693 0.224104 0.309038 0.449231 0.589424 0.729617 0.870834 11.202133 11.230786 18.164708 25.436322 18.164708 37.032428 0 49.835012-130.159432 119.377878-342.132194 119.377878s-342.132194-69.543889-342.132194-119.377878c0-12.549827 3.115967-23.668049 18.361183-37.087687 0.083911-0.112564 1.122567-1.094938 1.207501-1.178849 0.36532-0.36532 0.673335-0.75827 0.926092-1.207501 3.90289-4.660136 6.036483-10.416234 6.036483-16.340153 0-14.150278-11.511171-25.632797-25.66145-25.632797-6.28924 0-12.240789 2.246157-16.929578 6.373151-0.449231 0.252757-0.870834 0.589424-1.263783 0.954745-23.611767 22.99369-35.57217 47.925522-35.57217 74.120115 0 98.208742 169.830967 172.273599 395.026892 172.273599s395.026892-74.063833 395.026892-172.273599c0-25.885554-11.847839-50.677193-35.992749-74.513064C870.583888 435.844529 870.107027 435.506838 869.545232 435.226452z" p-id="2437" fill="#ffffff"></path></svg>