<svg t="1635822975409" class="icon" viewBox="0 0 1024 1024" version="1.1" xmlns="http://www.w3.org/2000/svg" p-id="7764" width="200" height="200"><path d="M430.424 573.096H61.784c-22.61 0-40.96 18.35-40.96 40.96v368.64c0 22.61 18.35 40.96 40.96 40.96h368.64c22.61 0 40.96-18.35 40.96-40.96v-368.64c0-22.61-18.35-40.96-40.96-40.96zM405.848 958.12H86.36V638.632h319.488V958.12zM962.56 573.096H593.92c-22.61 0-40.96 18.35-40.96 40.96v368.64c0 22.61 18.35 40.96 40.96 40.96h368.64c22.61 0 40.96-18.35 40.96-40.96v-368.64c0-22.61-18.35-40.96-40.96-40.96zM937.984 958.12H618.496V638.632h319.488V958.12zM430.424 40.661H61.784c-22.61 0-40.96 18.35-40.96 40.96v368.64c0 22.61 18.35 40.96 40.96 40.96h368.64c22.61 0 40.96-18.35 40.96-40.96V81.621c0-22.61-18.35-40.96-40.96-40.96z m-24.576 385.024H86.36V106.197h319.488v319.488zM778.24 40.661c-124.436 0-225.28 100.844-225.28 225.28s100.844 225.28 225.28 225.28 225.28-100.844 225.28-225.28-100.844-225.28-225.28-225.28m0 65.536c88.064 0 159.744 71.68 159.744 159.744s-71.68 159.744-159.744 159.744-159.744-71.68-159.744-159.744 71.68-159.744 159.744-159.744" fill="#f1625e" p-id="7765"></path></svg>